<svg width="57" height="57" viewBox="0 0 57 57" fill="none" xmlns="http://www.w3.org/2000/svg">
<path d="M10.1299 56.9999C10.0049 56.7961 9.7758 56.8363 9.5943 56.7916C6.58615 56.0401 4.47807 53.4227 4.46915 50.329C4.45278 43.6699 4.44832 37.0109 4.47212 30.3518C4.47956 28.1197 5.39896 26.279 7.21099 24.9621C12.9803 20.7702 18.763 16.5962 24.5562 12.4356C27.0064 10.6753 29.9893 10.6767 32.4365 12.4341C38.2297 16.5933 44.0139 20.7643 49.7817 24.9576C51.5923 26.2731 52.5131 28.1168 52.5206 30.3489C52.5444 37.0079 52.5429 43.667 52.5221 50.326C52.5117 53.6593 50.0644 56.4315 46.8004 56.8883C46.723 56.8988 46.6575 56.9092 46.6397 56.9985H46.3064C46.1904 56.8154 46.0074 56.8898 45.8512 56.8898C41.5339 56.8854 37.2165 56.8854 32.8977 56.8869C32.7594 56.8869 32.5942 56.8229 32.502 56.9985H32.3904C32.3577 56.9598 32.3324 56.9002 32.2908 56.8854C31.1541 56.4523 30.7034 55.6116 30.7138 54.4197C30.7376 51.6593 30.7227 48.8975 30.7197 46.1356C30.7197 45.8961 30.7227 45.6505 30.6736 45.4169C30.4281 44.2533 29.3957 43.5137 28.2204 43.6417C27.1091 43.7622 26.2774 44.7131 26.2745 45.908C26.2655 48.7993 26.267 51.6891 26.2745 54.5804C26.2745 55.1161 26.1495 55.5952 25.8549 56.0476C25.5232 56.555 24.9816 56.7351 24.4892 56.9985H24.3776C24.2839 56.8244 24.1173 56.8898 23.9804 56.8898C19.6452 56.8854 15.3086 56.8854 10.9734 56.8854C10.8336 56.8854 10.6699 56.8303 10.5747 56.9985H10.1299V56.9999ZM8.91441 40.2772C8.91441 43.5435 8.91293 46.8097 8.91441 50.076C8.91441 51.6132 9.83233 52.5343 11.3721 52.5373C14.6927 52.5432 18.0132 52.5283 21.3353 52.5521C21.792 52.5551 21.8307 52.3929 21.8277 52.0149C21.8113 49.9927 21.8232 47.9689 21.8173 45.9467C21.8173 45.4244 21.8634 44.908 21.9869 44.4021C22.8081 41.0405 25.8966 38.8204 29.2038 39.2073C32.6523 39.6105 35.1605 42.4512 35.171 45.972C35.1769 47.9942 35.1858 50.018 35.1605 52.0402C35.1546 52.4688 35.2781 52.5507 35.6827 52.5492C39.0033 52.5313 42.3238 52.5432 45.6459 52.5373C47.15 52.5343 48.0768 51.6072 48.0768 50.1073C48.0798 43.594 48.0738 37.0808 48.0828 30.5661C48.0828 29.6361 47.7168 28.9412 46.964 28.398C41.339 24.349 35.7229 20.2881 30.1023 16.2317C28.9077 15.3701 28.0969 15.3656 26.9157 16.2183C21.31 20.2628 15.7117 24.3163 10.0971 28.3474C9.267 28.9441 8.89805 29.6882 8.90549 30.703C8.9278 33.8949 8.91441 37.0868 8.91441 40.2787V40.2772Z" fill="#F59C1A"/>
<path d="M0 19.3638C0.431435 18.526 1.20355 18.0499 1.93551 17.5246C9.43504 12.1497 16.9301 6.77039 24.4296 1.39404C27.0078 -0.454124 29.9758 -0.469005 32.5451 1.37172C40.302 6.92812 48.0544 12.4905 55.8069 18.0528C57.2113 19.0602 57.3928 20.5245 56.2606 21.6361C55.4424 22.4381 54.3861 22.5096 53.3834 21.7968C51.1503 20.2061 48.9247 18.6034 46.6976 17.0052C41.1574 13.0306 35.6187 9.05604 30.0785 5.08145C28.921 4.25111 28.0909 4.24813 26.9349 5.07549C19.2405 10.5917 11.5476 16.1094 3.85167 21.6242C2.25983 22.764 1.02057 22.4486 0.117529 20.6897C0.0967009 20.648 0.0401681 20.6227 0.00148771 20.59C0.00148771 20.1822 0.00148771 19.773 0.00148771 19.3653L0 19.3638Z" fill="#F59C1A"/>
<path d="M10.5747 57C10.6699 56.8319 10.8336 56.8869 10.9734 56.8869C15.3086 56.8869 19.6453 56.8869 23.9804 56.8914C24.1173 56.8914 24.2839 56.8259 24.3777 57H10.5747Z" fill="#F59C1A"/>
<path d="M32.5049 57.0001C32.5971 56.8245 32.7608 56.8884 32.9006 56.8884C37.2179 56.8884 41.5353 56.8885 45.8541 56.8914C46.0103 56.8914 46.1933 56.817 46.3093 57.0001H32.5064H32.5049Z" fill="#F59C1A"/>
</svg>
