<svg width="38" height="29" viewBox="0 0 38 29" fill="none" xmlns="http://www.w3.org/2000/svg">
<path d="M24.8563 17.153C21.4698 17.153 18.0849 17.1664 14.6984 17.147C12.8205 17.1366 11.622 15.8538 11.8356 14.1468C11.9735 13.0477 12.7745 12.1591 13.8544 11.9441C14.1911 11.8769 14.5412 11.8515 14.8853 11.85C21.5588 11.844 28.2309 11.844 34.9044 11.847C36.5227 11.847 37.5061 12.4966 37.8799 13.7854C38.2968 15.2206 37.4216 16.7348 35.9694 17.047C35.5867 17.1291 35.1847 17.1485 34.7916 17.15C31.4794 17.1575 28.1686 17.1545 24.8563 17.1545V17.153Z" fill="#01276A"/>
<path d="M24.8962 1.32164C28.3568 1.32164 31.8159 1.30372 35.2765 1.3306C37.2197 1.34554 38.4583 3.08981 37.8293 4.84752C37.4377 5.94516 36.4795 6.58134 35.1593 6.58432C31.1796 6.59179 27.2013 6.58731 23.2215 6.58731C20.3053 6.58731 17.389 6.60374 14.4728 6.57835C12.7269 6.56342 11.5625 5.13873 11.8547 3.44673C12.0713 2.19229 13.1081 1.33658 14.5158 1.32762C17.5062 1.3082 20.4966 1.32164 23.487 1.32015C23.9572 1.32015 24.4259 1.32015 24.8962 1.32015V1.32164Z" fill="#01276A"/>
<path d="M24.868 27.6769C21.4074 27.6769 17.9483 27.6963 14.4876 27.6694C12.7151 27.656 11.5655 26.2596 11.8518 24.5617C12.0594 23.3341 13.1037 22.4381 14.4253 22.4216C16.3774 22.3978 18.331 22.4127 20.283 22.4127C25.2255 22.4127 30.1694 22.4187 35.1119 22.4082C36.346 22.4052 37.2835 22.8861 37.7789 24.042C38.528 25.7818 37.2775 27.647 35.321 27.6664C31.985 27.7008 28.6475 27.6784 25.3115 27.6784C25.1632 27.6784 25.0148 27.6784 24.8665 27.6784V27.6754L24.868 27.6769Z" fill="#01276A"/>
<path d="M3.94104 -9.55388e-06C6.09336 0.00297721 7.86001 1.7801 7.86297 3.94252C7.86594 6.09896 6.09632 7.897 3.95588 7.91343C1.78873 7.92836 -0.0135204 6.11091 -0.000170447 3.92012C0.0131795 1.75621 1.78279 -0.00299632 3.94104 -9.55388e-06Z" fill="#01276A"/>
<path d="M3.94427 29C1.78454 29.0045 0.0149243 27.2453 9.09894e-05 25.0814C-0.0147423 22.8906 1.78602 21.0731 3.95465 21.0866C6.09362 21.1 7.86472 22.898 7.86323 25.0545C7.86175 27.2169 6.0951 28.9955 3.94427 29Z" fill="#01276A"/>
<path d="M3.84486 18.4463C1.64656 18.391 -0.062237 16.5736 0.00302961 14.3574C0.0653296 12.2069 1.90466 10.4806 4.05401 10.5552C6.21819 10.6299 7.91364 12.4324 7.86172 14.6053C7.81129 16.7602 5.99272 18.5 3.84486 18.4463Z" fill="#01276A"/>
</svg>
