<svg width="29" height="38" viewBox="0 0 29 38" fill="none" xmlns="http://www.w3.org/2000/svg">
<g clip-path="url(#clip0_6_137)">
<path d="M28.2988 37.6623H0.640503V0H28.2988V37.6623ZM2.76824 2.2812V35.3385H9.8833V27.2042H19.084V35.3078H26.1617V2.2812H2.76824ZM16.837 29.5067H12.1163V35.3031H16.837V29.5067Z" fill="#01276A"/>
<path d="M11.9292 13.9874H5.27478V7.09182H11.9292V13.9874ZM9.79447 11.7039V9.41085H7.43759V11.7039H9.79447Z" fill="#01276A"/>
<path d="M16.9517 13.9614V7.12019H23.6342V13.9614H16.9517ZM19.1449 9.38721V11.6968H21.4667V9.38721H19.1449Z" fill="#01276A"/>
<path d="M11.983 16.5594V23.4337H5.2865V16.5594H11.983ZM7.41657 21.1384H9.76878V18.8902H7.41657V21.1384Z" fill="#01276A"/>
<path d="M16.9656 16.5476H23.62V23.4432H16.9656V16.5476ZM21.497 21.1384V18.8902H19.1097V21.1384H21.497Z" fill="#01276A"/>
</g>
<defs>
<clipPath id="clip0_6_137">
<rect width="27.6583" height="37.6623" fill="white" transform="translate(0.640503)"/>
</clipPath>
</defs>
</svg>
