<svg width="100" height="100" viewBox="0 0 100 100" fill="none" xmlns="http://www.w3.org/2000/svg">
<path d="M16.6778 35.8321C16.6255 34.6622 16.6569 33.4903 16.6695 32.3184C16.6716 32.0882 16.5439 31.6759 16.9206 31.6968C17.9942 31.7533 19.1076 31.3536 20.131 32.0693C22.8182 33.9507 25.8131 35.0536 29.0821 35.3173C29.8334 35.378 30.0427 35.5621 30.0385 36.3197C30.0071 42.7612 30.0427 49.2027 29.9946 55.6442C29.9883 56.5503 30.2646 56.6738 31.0724 56.6717C44.5419 56.6466 58.0114 56.655 71.4809 56.6529C80.9803 56.6529 90.4797 56.6445 99.9812 56.6382V13.2974C99.8849 13.3078 99.7886 13.3308 99.6924 13.3308C89.5735 13.3308 79.4567 13.3287 69.3378 13.3476C68.8167 13.3476 68.5007 13.1278 68.17 12.7972C65.4138 10.0327 62.6554 7.27023 59.8908 4.51408C56.8645 1.49005 53.2062 0.0104767 48.9327 0.0188477C42.1979 0.0293114 35.4632 0.0188477 28.7284 0.0272187C28.1466 0.0272187 27.5585 0.0669809 26.983 0.144413C24.8692 0.433212 23.1426 1.66375 21.2737 2.54271C20.3801 2.96126 19.4802 3.2961 18.4819 3.30656C17.2708 3.32051 16.6653 2.7185 16.6653 1.50052C16.6653 1.30589 16.6381 1.10499 16.6695 0.916638C16.7867 0.205103 16.546 -0.00626533 15.7926 1.29213e-05C10.8472 0.0397752 5.90182 0.0376824 0.956442 0.00419842C0.213485 1.29212e-05 -0.00207778 0.161155 1.50583e-05 0.941751C0.0314076 8.94443 0.0188506 16.9492 0.0188506 24.9519C0.0188506 28.5954 0.0335005 32.2388 0.00629357 35.8823C0.0021079 36.4976 0.127678 36.709 0.795294 36.7048C5.80555 36.6755 10.8158 36.6734 15.8261 36.7048C16.5251 36.709 16.7071 36.4997 16.6778 35.83V35.8321ZM95.6071 16.6458C96.4506 16.6458 96.6787 16.8215 96.6766 17.6984C96.6431 29.2462 96.6452 40.7961 96.6745 52.3439C96.6745 53.1496 96.4966 53.3505 95.6783 53.3484C75.2166 53.3233 54.7529 53.3233 34.2912 53.3463C33.5357 53.3463 33.3347 53.1684 33.3389 52.4004C33.3682 43.4874 33.3682 34.5723 33.3389 25.6592C33.3368 24.8996 33.5105 24.7154 34.2891 24.7238C36.3673 24.7489 38.3555 24.2508 40.149 23.1772C40.7246 22.834 41.0343 22.9135 41.4424 23.376C41.9782 23.985 42.5453 24.5794 43.1669 25.0984C43.7048 25.5462 43.5624 25.8539 43.1585 26.2619C41.6747 27.7583 39.8749 28.4551 37.7862 28.3212C36.9281 28.2668 36.6498 28.4803 36.6645 29.4011C36.7251 33.1743 36.7126 36.9475 36.6707 40.7208C36.6624 41.4888 36.8654 41.6771 37.6251 41.673C41.4131 41.6458 43.9978 43.5271 44.8181 46.8169C45.0023 47.5515 45.0274 48.3049 44.973 49.0457C44.9186 49.7886 45.1195 50.0293 45.9148 50.0209C49.8179 49.9749 53.7232 50 57.6263 50H83.5859C84.5025 50 84.9644 49.5494 84.9713 48.6481C84.9944 45.3102 86.8988 42.7235 89.9544 41.899C90.8083 41.6688 91.6893 41.6081 92.5662 41.6667C93.1397 41.7044 93.3469 41.5641 93.3427 40.9321C93.3113 36.9643 93.3155 32.9943 93.3385 29.0265C93.3427 28.4656 93.1732 28.3024 92.6269 28.3296C91.6203 28.3798 90.6157 28.3484 89.6363 28.0324C86.7565 27.1011 84.9881 24.571 84.9692 21.3293C84.9637 20.4448 84.5165 20.0025 83.6277 20.0025C75.0387 20.0025 66.4518 19.9942 57.8628 20.0172C57.1868 20.0172 56.7117 19.8288 56.2492 19.3454C55.4435 18.502 54.5708 17.7214 53.7274 16.9136C53.7734 16.832 53.8194 16.7483 53.8634 16.6667H54.711C68.3417 16.6667 81.9723 16.6751 95.603 16.6458H95.6071ZM60.5626 42.2254C64.0262 44.3726 68.4902 43.8222 71.2444 40.838C74.053 37.7951 74.2665 33.1869 71.709 29.9305C70.2126 28.024 68.2391 26.94 65.803 26.7328C63.4214 26.5298 61.3285 27.2497 59.3278 28.903C59.581 27.8294 59.9452 27.0237 59.9494 26.1489C59.9494 25.5964 59.941 25.0502 59.8112 24.504C59.5371 23.3488 59.5559 23.3447 60.7174 23.3447C67.4522 23.3447 74.1869 23.353 80.9217 23.33C81.537 23.3279 81.8132 23.4597 81.9807 24.0939C82.9936 27.9048 85.4632 30.3177 89.2407 31.3662C89.8225 31.5273 90.0255 31.701 90.013 32.3079C89.9732 34.1286 89.9628 35.9535 90.0193 37.7721C90.0381 38.3811 89.7786 38.5213 89.2847 38.6531C85.4422 39.6869 82.9852 42.1355 81.9723 45.9798C81.8091 46.5972 81.5349 46.6893 80.9866 46.6893C70.3466 46.6767 59.7087 46.6725 49.0687 46.6977C48.3781 46.6977 48.1813 46.4947 47.993 45.8333C46.9487 42.1396 44.5628 39.7141 40.8438 38.695C40.1846 38.515 39.9816 38.2785 40.0025 37.5984C40.059 35.8112 40.036 34.0198 40.0109 32.2305C40.0046 31.7366 40.103 31.5189 40.6513 31.3934C42.5642 30.956 44.2259 30.0184 45.5527 28.564C45.9525 28.1266 46.1785 28.045 46.5971 28.5263C47.1496 29.1646 47.7795 29.7359 48.3823 30.3282C50.8916 32.7955 54.0999 33.1408 57.0968 31.2699C57.2287 31.1883 57.3375 31.0481 57.6096 31.1297C55.2509 36.0749 57.6598 40.4257 60.5688 42.2275L60.5626 42.2254ZM59.9828 35.0368C59.964 32.2723 62.2243 30.0226 65.0119 30.031C67.7724 30.0394 69.9573 32.2221 69.9699 34.9845C69.9824 37.77 67.7305 40.0364 64.968 40.0176C62.2599 40.0009 60.0017 37.7428 59.9849 35.0348L59.9828 35.0368ZM17.6636 6.60264C19.4906 6.78262 21.2507 6.42267 22.812 5.46628C25.5912 3.76487 28.5463 3.19146 31.8112 3.29819C37.4325 3.48026 43.0644 3.37143 48.692 3.34004C52.2247 3.32121 55.2237 4.50989 57.71 7.02956C59.738 9.08464 61.8015 11.1062 64.0409 13.3329C59.4136 13.3329 55.0605 13.3266 50.7095 13.3434C50.2909 13.3434 50.0565 13.1278 49.8054 12.8746C48.7945 11.8617 47.7628 10.8698 46.777 9.83176C46.3899 9.42576 46.1429 9.29811 45.7223 9.80037C45.1802 10.4449 44.1401 10.9807 44.0773 11.6336C44.0145 12.3054 45.0923 12.8621 45.6804 13.4543C48.9578 16.7546 52.2603 20.0318 55.5356 23.3321C56.6992 24.504 56.9357 25.8978 56.2743 27.2539C55.6486 28.5389 54.372 29.2462 52.9195 29.1102C51.9966 29.0223 51.2913 28.5409 50.653 27.8985C47.6707 24.8996 44.6675 21.9237 41.6998 18.9101C41.2478 18.4518 40.9799 18.3576 40.4818 18.8431C37.0474 22.1811 31.8007 22.3171 28.2115 19.0943C27.8745 18.7908 27.6673 18.7427 27.3743 19.1508C26.9579 19.7305 26.5037 20.2892 26.0203 20.8145C25.6477 21.2184 25.767 21.4402 26.15 21.7374C27.1274 22.4971 28.1131 23.2463 29.2788 23.6879C29.8544 23.9055 30.0511 24.209 30.0385 24.8305C29.9967 26.9107 29.9799 28.9951 30.0427 31.0753C30.0678 31.9145 29.8376 32.1363 29.0172 32.0107C26.7758 31.6717 24.5804 31.1213 22.7575 29.7631C21.1733 28.5828 19.5157 28.0868 17.6008 28.3442C16.8181 28.4489 16.6444 28.1475 16.6465 27.392C16.6778 20.7894 16.6799 14.1847 16.6465 7.58205C16.6423 6.76588 16.8495 6.52312 17.6657 6.60264H17.6636ZM13.346 32.513C13.346 33.1952 13.164 33.3836 12.4817 33.3731C9.71706 33.3354 6.95242 33.3333 4.18988 33.3731C3.50552 33.3836 3.32554 33.1973 3.32972 32.513C3.36111 27.7645 3.34646 23.0182 3.34646 18.2697C3.34646 13.5213 3.3653 8.90467 3.32554 4.22109C3.31926 3.47189 3.52645 3.31702 4.24011 3.32749C7.00265 3.37143 9.76938 3.36306 12.5319 3.33167C13.1493 3.32539 13.3481 3.46352 13.346 4.12064C13.323 13.5841 13.323 23.0475 13.346 32.5109V32.513Z" fill="#F59C1A"/>
<path d="M99.9812 66.5955C99.6254 66.6122 99.2696 66.6415 98.9138 66.6415C94.0333 66.6436 89.1549 66.6624 84.2744 66.6248C83.4833 66.6185 83.2636 66.8508 83.3243 67.6021C83.3871 68.3785 83.3619 69.1633 83.3306 69.9439C83.3054 70.5801 83.634 71.5134 83.1924 71.7729C82.7153 72.0534 82.056 71.3356 81.5579 70.9672C78.6824 68.841 75.4908 67.9913 71.9329 68.3178C70.5454 68.4455 69.1369 68.3136 67.7389 68.3639C66.9311 68.3932 66.1044 68.458 65.3279 68.661C58.6162 70.4273 51.9087 72.2145 45.2095 74.0331C43.328 74.5437 41.9258 75.7408 41.0866 77.4987C40.7915 78.1182 40.599 78.1056 40.0569 77.8084C34.6741 74.8744 29.2788 71.9613 23.8772 69.0628C21.0414 67.5414 17.8414 68.0144 15.734 70.2222C12.7224 73.3781 13.457 78.34 17.3141 80.6567C24.8253 85.1686 32.3281 89.6974 39.8874 94.1298C43.3929 96.1849 46.6368 98.7359 50.586 99.979H76.5518C77.7071 99.8514 78.8163 99.5542 79.8941 99.1105C80.7605 98.7548 81.6395 98.422 82.5039 98.0621C82.9643 97.8695 83.1485 97.9574 83.1401 98.489C83.1317 98.9934 83.0062 99.5333 83.385 99.979C88.6568 99.979 93.9287 99.9623 99.1984 99.9979C99.8682 100.002 100 99.866 99.9979 99.1964C99.9707 88.3287 99.9791 77.461 99.9791 66.5934L99.9812 66.5955ZM83.3996 79.0201C83.1882 83.6953 83.3243 88.3873 83.3515 93.073C83.3557 93.6861 83.1861 93.9749 82.5876 94.1905C80.8819 94.8058 79.2035 95.5047 77.5187 96.1786C76.6942 96.5093 75.8466 96.6641 74.9529 96.6599C71.1795 96.6453 67.404 96.6537 63.6307 96.6537C59.8238 96.6537 56.0169 96.6453 52.21 96.6578C51.1071 96.662 50.0942 96.3942 49.1524 95.8312C39.0984 89.8125 29.0423 83.7979 18.9925 77.7708C17.6175 76.9462 16.9897 75.6215 17.2555 74.257C17.5275 72.8549 18.5656 71.8295 19.9887 71.549C20.7589 71.3983 21.483 71.5574 22.1548 71.9194C28.1236 75.136 34.0861 78.3651 40.0548 81.5817C40.3562 81.7428 40.5299 81.9291 40.6471 82.2806C41.8798 85.9555 45.0232 87.7574 48.8552 86.7968C54.7382 85.3214 60.5856 83.7016 66.4518 82.153C66.908 82.0316 67.1278 81.8474 66.9394 81.3556C66.6276 80.5416 66.7699 79.3508 66.1211 78.9427C65.531 78.5723 64.5494 79.2148 63.7458 79.4261C58.6644 80.7676 53.5871 82.1216 48.5015 83.4505C47.8193 83.6284 47.1307 83.8523 46.394 83.6828C44.8474 83.327 43.7801 82.1111 43.7299 80.6169C43.6734 78.9343 44.6381 77.6075 46.2936 77.1576C49.0792 76.4021 51.8752 75.678 54.6628 74.9309C58.1411 73.9996 61.6215 73.0809 65.0915 72.1141C67.0064 71.5804 68.9548 71.6453 70.9033 71.662C77.0688 71.7164 75.1915 71.2477 80.6915 74.2801C82.755 75.4185 83.5042 76.6616 83.3975 79.0139L83.3996 79.0201ZM95.875 96.6704C93.0476 96.6327 90.2202 96.6327 87.3927 96.6704C86.7628 96.6788 86.6561 96.4716 86.6582 95.9003C86.6749 87.5146 86.6749 79.129 86.6582 70.7433C86.6582 70.1657 86.7795 69.9564 87.4053 69.9648C90.2327 69.9983 93.0602 70.0046 95.8876 69.9627C96.574 69.9523 96.6703 70.2055 96.6682 70.8019C96.6452 74.9623 96.6556 79.1227 96.6556 83.2831C96.6556 87.4435 96.6431 91.6687 96.6703 95.8605C96.6745 96.4862 96.5259 96.6788 95.875 96.6704Z" fill="#F59C1A"/>
</svg>
