<svg width="88" height="104" viewBox="0 0 88 104" fill="none" xmlns="http://www.w3.org/2000/svg">
<g clip-path="url(#clip0_31_549)">
<path d="M35.6483 0C37.4225 0.520868 39.2757 0.859975 40.9574 1.59516C48.1252 4.73122 52.3459 12.5442 51.0615 20.0561C49.6845 28.1052 43.3712 34.0382 35.4034 34.7652C25.7565 35.6442 17.3778 28.8458 16.3818 19.0714C15.4048 9.48685 22.3549 1.43239 31.3051 0.184474C31.5337 0.15192 31.7569 0.0623957 31.9827 0C33.2046 0 34.4264 0 35.6483 0ZM22.8121 17.3948C22.8121 23.4635 27.724 28.3629 33.8169 28.3738C39.7927 28.3846 44.7618 23.3984 44.7427 17.4084C44.7237 11.3913 39.8118 6.50543 33.7788 6.49729C27.743 6.48915 22.8121 11.3913 22.8148 17.3948H22.8121Z" fill="#F59C1A"/>
<path d="M67.1034 53.1693C72.5024 53.1693 77.8306 53.1557 83.1588 53.1747C85.6188 53.1855 87.4747 54.7264 87.9156 57.073C87.9972 57.5017 87.9945 57.9493 87.9945 58.3861C87.9972 68.5728 87.9999 78.7596 87.9945 88.9464C87.9945 92.3049 86.0651 94.212 82.6772 94.2147C80.7505 94.2147 78.8211 94.2147 76.7747 94.2147C76.7747 96.3172 76.8646 98.3437 76.7339 100.354C76.6741 101.238 76.353 102.245 75.8141 102.934C74.742 104.304 72.8017 104.334 71.3486 103.143C67.9933 100.392 64.6788 97.5895 61.3071 94.8604C60.8581 94.4969 60.1724 94.2473 59.5955 94.2446C52.7733 94.2039 45.9483 94.2175 39.1234 94.2175C35.4878 94.2175 33.6374 92.3564 33.6347 88.6995C33.6347 87.3892 33.6347 86.0789 33.6347 84.6655H32.3366C24.3579 84.6655 16.3819 84.6655 8.40317 84.6655C3.24367 84.6655 0.00537521 81.4372 0.00265396 76.3072C-6.73015e-05 70.2819 -0.00278856 64.2594 0.00265396 58.2342C0.0162602 47.0735 7.43713 38.3001 18.4501 36.4608C19.6474 36.26 20.8829 36.2139 22.102 36.2112C29.8766 36.1895 37.6512 36.2003 45.4259 36.2003C55.7775 36.2003 64.0964 42.5321 66.8694 52.5127C66.9238 52.7081 67.0027 52.8953 67.1034 53.172V53.1693ZM81.4363 59.7235H40.2201V87.7175C40.6501 87.7175 41.0174 87.7175 41.3848 87.7175C47.9702 87.7175 54.5557 87.7337 61.1411 87.7039C62.3657 87.6985 63.3753 88.0457 64.3005 88.8379C66.0231 90.3164 67.7864 91.7488 69.5389 93.192C69.724 93.3466 69.9471 93.4552 70.2655 93.6559C70.2655 92.6115 70.2437 91.7325 70.271 90.8562C70.3145 89.489 71.1227 88.3496 72.399 87.9345C72.9024 87.7717 73.463 87.731 73.9963 87.7256C76.4618 87.7039 78.93 87.7175 81.439 87.7175V59.7235H81.4363ZM60.2567 53.1665C60.0689 52.643 59.9574 52.2225 59.7751 51.8372C57.0075 45.991 52.3515 42.8468 45.8966 42.7302C37.7519 42.5837 29.6045 42.6461 21.4598 42.7112C14.6321 42.7655 8.79231 47.3366 7.05071 53.9072C6.74321 55.0737 6.55816 56.3053 6.54728 57.5098C6.49829 63.8362 6.52823 70.1653 6.5119 76.4917C6.5119 77.3869 6.77586 78.114 7.74735 78.1384C10.1448 78.1981 12.5476 78.1574 15.0566 78.1574C15.0566 77.6962 15.0566 77.3354 15.0566 76.9718C15.0566 71.6601 15.0512 66.3483 15.0621 61.0338C15.0648 59.3708 16.039 58.0931 17.5303 57.7268C19.6365 57.2114 21.5604 58.793 21.5686 61.1044C21.5877 66.3836 21.5741 71.6628 21.5741 76.9393C21.5741 77.3272 21.5741 77.7179 21.5741 78.0814H33.6319C33.6319 77.5931 33.6319 77.1889 33.6319 76.7847C33.6319 70.6943 33.6319 64.6039 33.6319 58.5136C33.6319 55.0465 35.5042 53.1693 38.9602 53.1665C45.6463 53.1638 52.3324 53.1665 59.0185 53.1665H60.2513H60.2567Z" fill="#F59C1A"/>
<path d="M53.1215 73.654C53.1406 75.4228 51.6221 76.9393 49.8234 76.942C48.0545 76.942 46.5823 75.5205 46.5306 73.7598C46.4789 71.9503 47.9239 70.4691 49.7662 70.4501C51.6085 70.4284 53.0998 71.8527 53.1215 73.654Z" fill="#F59C1A"/>
<path d="M64.1237 73.654C64.1455 75.4228 62.627 76.9393 60.8282 76.942C59.0594 76.9447 57.5872 75.5232 57.5355 73.7625C57.4838 71.9503 58.9261 70.4718 60.7684 70.4501C62.6107 70.4284 64.1046 71.8527 64.1264 73.6513L64.1237 73.654Z" fill="#F59C1A"/>
<path d="M71.8464 70.4501C73.6724 70.4583 75.1582 71.9476 75.1228 73.7327C75.0875 75.4743 73.6098 76.9257 71.8492 76.942C70.0395 76.9583 68.5347 75.4798 68.5347 73.6839C68.5347 71.8635 69.9905 70.442 71.8464 70.4528V70.4501Z" fill="#F59C1A"/>
</g>
<defs>
<clipPath id="clip0_31_549">
<rect width="88" height="104" fill="white"/>
</clipPath>
</defs>
</svg>
