<svg width="63" height="37" viewBox="0 0 63 37" fill="none" xmlns="http://www.w3.org/2000/svg">
<g clip-path="url(#clip0_6_157)">
<path d="M25.4318 35.544C22.0494 35.544 18.667 35.5483 15.2846 35.544C12.6446 35.5396 11.4218 34.3203 11.4196 31.6817C11.4131 27.4455 11.3978 23.2116 11.4393 18.9754C11.4458 18.319 11.638 17.6126 11.9328 17.0215C13.0529 14.7871 14.2015 12.5658 15.4484 10.3988C15.8174 9.75764 16.4528 9.14036 17.1167 8.82086C19.4684 7.68847 21.8573 6.61476 24.2942 5.68016C25.0213 5.40195 26.0433 5.41934 26.777 5.69755C29.1156 6.58651 31.4149 7.59501 33.6553 8.70566C34.4414 9.09472 35.2013 9.79893 35.649 10.551C36.9046 12.6679 38.0204 14.8675 39.1231 17.0693C39.4179 17.6583 39.5991 18.369 39.6079 19.0276C39.6494 23.2616 39.6363 27.4977 39.6275 31.7338C39.6232 34.2768 38.3545 35.5353 35.7975 35.5396C32.343 35.5461 28.8885 35.5396 25.4318 35.5396V35.544ZM30.8931 33.4292C32.6814 33.4292 34.2799 33.4313 35.8783 33.4292C37.3347 33.4248 37.6142 33.164 37.6164 31.736C37.623 27.5716 37.6317 23.4072 37.6033 19.2428C37.6011 18.7602 37.4701 18.2321 37.2474 17.8017C36.1709 15.7087 35.0638 13.6265 33.913 11.5725C33.6859 11.1682 33.2732 10.7814 32.8518 10.5879C30.7075 9.60332 28.5479 8.6535 26.3599 7.77106C25.886 7.57979 25.2069 7.56241 24.7353 7.74715C22.5407 8.61438 20.3768 9.55767 18.2281 10.5314C17.8067 10.7227 17.3896 11.1095 17.1625 11.5138C15.9899 13.5982 14.8719 15.713 13.7539 17.8256C13.5901 18.1365 13.4373 18.4994 13.4351 18.8385C13.4154 23.292 13.4001 27.7455 13.4613 32.199C13.4678 32.6032 13.9919 33.3314 14.3085 33.3487C16.2126 33.4574 18.1277 33.4031 20.1475 33.4031C20.1475 31.9338 20.1257 30.6014 20.1519 29.2691C20.1934 27.1565 21.438 25.8937 23.5583 25.8284C24.7571 25.7915 25.9581 25.8132 27.1591 25.8219C29.5807 25.8415 30.8625 27.1108 30.8843 29.5169C30.8953 30.7753 30.8843 32.0338 30.8843 33.4292H30.8931ZM28.8579 33.3813C28.8579 31.8642 28.9366 30.3841 28.8012 28.9235C28.7684 28.5627 28.0587 28.0193 27.6242 27.9824C26.2158 27.8628 24.7855 27.8715 23.3771 27.9802C22.9622 28.0128 22.27 28.5127 22.2416 28.8409C22.1193 30.3363 22.187 31.8447 22.187 33.3792H28.8558L28.8579 33.3813Z" fill="#01276A"/>
<path d="M13.6973 8.56244C13.6078 8.08644 13.5466 7.77346 13.4877 7.4583C12.9418 4.51539 10.5944 2.74834 7.50237 2.95048C4.75321 3.13088 2.63073 5.35002 2.51937 8.20816C2.4757 9.32099 2.51282 10.436 2.51282 11.6445H11.8587C11.5726 13.418 11.1359 13.8093 9.54405 13.8093C7.25563 13.8093 4.9672 13.8093 2.50845 13.8093C2.50845 14.2657 2.50845 14.6482 2.50845 15.0286C2.50845 20.5688 2.50845 26.1091 2.50845 31.6493C2.50845 33.1903 2.7421 33.425 4.25752 33.4272C5.85593 33.4294 7.45215 33.4272 9.07458 33.4272C9.36936 34.1206 9.6445 34.7704 9.96112 35.5159C7.75786 35.5159 5.6201 35.6181 3.49763 35.4855C1.63937 35.3703 0.521362 34.0836 0.516995 32.2209C0.490792 24.1833 0.458038 16.1436 0.53228 8.10383C0.562851 4.55017 3.22686 1.59422 6.62019 1.02042C10.3061 0.398796 13.6361 2.2028 15.0162 5.53694C15.3765 6.40633 15.597 7.16054 14.5249 7.70826C14.2257 7.8604 14.0314 8.21033 13.6973 8.56244Z" fill="#01276A"/>
<path d="M21.248 18.2038C21.248 17.4822 21.2262 16.7585 21.2546 16.0369C21.307 14.7175 22.0428 13.9264 23.3465 13.8808C24.7964 13.8308 26.2507 13.8308 27.7006 13.8829C28.9452 13.9264 29.7379 14.7067 29.7816 15.9456C29.8362 17.4235 29.834 18.908 29.7859 20.386C29.7423 21.6749 28.9343 22.4508 27.6285 22.49C26.2507 22.5313 24.8706 22.5247 23.4928 22.4943C22.0603 22.4639 21.2982 21.6879 21.2524 20.26C21.2305 19.5753 21.248 18.8885 21.2502 18.2017L21.248 18.2038ZM23.3334 16.026V20.3056H27.7115V16.026H23.3334Z" fill="#01276A"/>
<path d="M45.4119 26.3436C45.4119 25.1047 45.4119 23.9527 45.4119 22.7986C45.4119 22.5334 45.4032 22.2683 45.4185 22.0053C45.4818 21.0446 46.1347 20.4056 47.1479 20.3795C48.2921 20.3491 49.4385 20.3534 50.5827 20.3795C51.4059 20.3991 51.9846 20.8077 52.2925 21.588C52.7423 22.7247 53.1965 23.8593 53.6682 24.9873C53.7249 25.1242 53.8953 25.309 54.0175 25.3112C55.1093 25.3372 56.2012 25.3264 57.3585 25.3264C57.3585 24.8699 57.3061 24.4548 57.3694 24.0571C57.4786 23.3637 57.603 22.6617 57.8301 21.9988C58.0288 21.4163 58.459 21.2489 58.863 21.451C59.2713 21.6553 59.3674 22.0683 59.0966 22.603C58.6621 23.4593 58.7778 24.3635 58.7844 25.3285C59.2953 25.3285 59.7714 25.3285 60.2474 25.3285C61.6034 25.3329 62.2061 25.9871 62.2694 27.3455C62.324 28.5171 62.0117 29.4647 60.9833 30.1037C60.8697 30.1754 60.6797 30.2015 60.5509 30.1646C60.1251 30.0385 59.7102 29.8711 59.2298 29.6994C59.5879 29.4212 59.9417 29.1474 60.2954 28.8735C60.7824 28.4975 61.051 27.5477 60.802 27.0065C60.7584 26.9108 60.6077 26.8043 60.5072 26.8043C57.5746 26.7935 54.6421 26.7957 51.6221 26.7957C51.7531 26.9543 51.8252 27.0543 51.9082 27.1434C52.4279 27.6911 52.4584 28.0541 52.0174 28.6714C51.8099 28.9605 51.8885 29.1908 52.1899 29.2843C53.2271 29.606 53.2314 29.5929 53.321 30.7623H56.0985C55.7732 31.2861 55.4915 31.7447 55.1836 32.2446C54.3014 32.2446 53.3734 32.2337 52.4453 32.2555C52.2816 32.2598 52.061 32.3533 51.978 32.4793C51.9169 32.5685 52.0021 32.8054 52.0872 32.9336C52.4126 33.4161 52.4038 33.8573 52.0152 34.2855C51.8383 34.4811 51.644 34.6637 51.454 34.8484C50.9517 35.3331 50.5609 35.3636 49.9997 34.9615C49.6372 34.7028 49.373 34.8245 49.3053 35.2788C49.2158 35.8852 48.8904 36.1851 48.279 36.2069C47.9973 36.2177 47.7156 36.2156 47.4318 36.2069C46.8116 36.1873 46.4884 35.8939 46.4033 35.2875C46.3378 34.8115 46.0692 34.7007 45.6718 34.9832C45.1652 35.3462 44.7503 35.3201 44.2895 34.8876C44.0974 34.7072 43.9074 34.5203 43.7262 34.3268C43.2807 33.8552 43.2589 33.4335 43.6432 32.9075C43.9009 32.5532 43.8004 32.3055 43.3702 32.2424C42.6911 32.1424 42.4313 31.8425 42.416 31.147C42.4116 30.9492 42.416 30.7514 42.416 30.5514C42.4204 29.656 42.571 29.4734 43.4576 29.293C43.7742 29.2278 43.8747 28.9496 43.6825 28.6757C43.2283 28.0324 43.2567 27.6781 43.8223 27.1152C44.2393 26.7 44.5996 26.1719 45.4032 26.3479L45.4119 26.3436ZM47.8466 28.2736C46.4491 28.2736 45.3202 29.4017 45.3311 30.7862C45.342 32.149 46.4622 33.2531 47.8401 33.2553C49.2442 33.2574 50.3862 32.1424 50.3884 30.7666C50.3884 29.3908 49.2485 28.2736 47.8466 28.2736ZM46.8269 25.2938H52.2466C51.8034 24.1722 51.3863 23.0985 50.9408 22.0379C50.8972 21.9314 50.6788 21.8423 50.5412 21.8401C49.4472 21.8249 48.3532 21.8357 47.2593 21.8292C46.9732 21.8292 46.8225 21.9292 46.8247 22.2291C46.8291 23.2333 46.8247 24.2396 46.8247 25.2959L46.8269 25.2938Z" fill="#01276A"/>
<path d="M61.5008 33.5074C61.4921 34.968 60.254 36.2047 58.8041 36.2025C57.3367 36.2004 56.0855 34.9223 56.1095 33.4509C56.1357 31.9947 57.4065 30.7492 58.8346 30.7818C60.3042 30.8144 61.5074 32.0468 61.4986 33.5074H61.5008ZM58.8193 34.7419C59.5377 34.7376 60.0815 34.2073 60.0902 33.5052C60.0989 32.7836 59.5399 32.2359 58.7997 32.2381C58.0856 32.2424 57.5332 32.7771 57.5266 33.4748C57.5179 34.1921 58.0835 34.7463 58.8215 34.7419H58.8193Z" fill="#01276A"/>
</g>
<defs>
<clipPath id="clip0_6_157">
<rect width="61.7897" height="35.3084" fill="white" transform="translate(0.486206 0.898474)"/>
</clipPath>
</defs>
</svg>
