<svg width="31" height="31" viewBox="0 0 31 31" fill="none" xmlns="http://www.w3.org/2000/svg">
<g clip-path="url(#clip0_25_365)">
<path d="M8.74387 4.51271C8.74387 5.02864 8.76388 5.54457 8.74164 6.0605C8.6705 7.6415 7.58114 8.7575 5.99379 8.82171C4.92222 8.866 3.84843 8.86378 2.77686 8.82171C1.17394 8.75971 0.0890333 7.65921 0.0445697 6.06714C0.0134452 4.96221 0.00899888 3.85507 0.0445697 2.75236C0.0957028 1.22228 1.17394 0.121784 2.71461 0.0487129C3.82175 -0.00221567 4.93556 -0.00442995 6.04271 0.0487129C7.57225 0.11957 8.65939 1.22893 8.73942 2.74571C8.77055 3.3325 8.74387 3.92371 8.74609 4.51271H8.74387Z" fill="white"/>
<path d="M19.8642 4.40864C19.8642 8.24157 19.2729 8.83278 15.4423 8.83278C14.9243 8.83278 14.4063 8.85271 13.8883 8.82614C12.2899 8.742 11.2049 7.657 11.1605 6.06271C11.1294 4.95778 11.1249 3.85064 11.1627 2.74793C11.2138 1.22007 12.2943 0.123996 13.8372 0.0487106C14.871 -3.66755e-06 15.9092 0.0177106 16.943 0.0398535C18.7148 0.0797106 19.8198 1.19792 19.862 2.97157C19.8731 3.44985 19.862 3.93035 19.862 4.40864H19.8642Z" fill="white"/>
<path d="M22.2675 4.40421C21.9829 0.741786 23.4057 -0.188214 26.616 0.0310006C27.1673 0.0686434 27.7276 0.00885771 28.2789 0.0442863C29.8063 0.141715 30.9067 1.23336 30.9668 2.75236C31.0112 3.85507 31.0068 4.96443 30.9668 6.06714C30.9134 7.64814 29.8063 8.75529 28.2167 8.82393C27.2563 8.86379 26.2936 8.84164 25.331 8.83057C23.3279 8.80843 22.2852 7.75 22.263 5.73057C22.2586 5.28771 22.263 4.84707 22.263 4.40421H22.2675Z" fill="white"/>
<path d="M0.035409 15.4535C0.035409 15.0859 0.035409 14.7161 0.035409 14.3486C0.0465249 12.121 1.05807 11.1157 3.29681 11.1069C4.14829 11.1024 4.99977 11.0869 5.84902 11.1113C7.56976 11.1578 8.69691 12.2583 8.7436 13.9544C8.7725 14.9863 8.77028 16.0181 8.7436 17.0478C8.69914 18.7461 7.57643 19.8533 5.85791 19.8998C4.93307 19.9241 4.00823 19.9131 3.08339 19.902C1.13811 19.8776 0.0665335 18.817 0.0376322 16.8906C0.0309627 16.4123 0.0376322 15.9318 0.0376322 15.4535H0.035409Z" fill="white"/>
<path d="M19.8596 15.5399C19.8596 16.0934 19.8841 16.647 19.8552 17.1984C19.7729 18.7151 18.6858 19.8245 17.1563 19.8931C16.0491 19.9441 14.9353 19.9441 13.8282 19.8931C12.2875 19.8201 11.2115 18.7196 11.1626 17.1873C11.127 16.0824 11.1292 14.9774 11.1626 13.8725C11.2093 12.2804 12.2942 11.1844 13.8971 11.1179C14.8575 11.0781 15.8201 11.1002 16.7828 11.1113C18.7592 11.1334 19.8441 12.2295 19.8663 14.2157C19.8708 14.6586 19.8663 15.0992 19.8663 15.5421H19.8619L19.8596 15.5399Z" fill="white"/>
<path d="M22.2676 15.4646C22.2676 15.1324 22.2676 14.8025 22.2676 14.4704C22.2742 12.0878 23.2502 11.1135 25.6312 11.1091C26.4449 11.1091 27.2586 11.0914 28.0723 11.1135C29.7997 11.1578 30.9291 12.2539 30.9758 13.9478C31.0047 15.0151 31.0113 16.0846 30.9735 17.1519C30.9157 18.7284 29.8042 19.8311 28.2124 19.8976C27.2897 19.9352 26.3627 19.9109 25.4378 19.9042C23.3414 19.8909 22.292 18.8569 22.2698 16.7909C22.2654 16.3481 22.2698 15.9074 22.2698 15.4646H22.2676Z" fill="white"/>
<path d="M0.0355133 26.5537C-0.235714 22.9378 1.07596 21.9458 4.48854 22.1716C5.00432 22.2071 5.52454 22.1517 6.04032 22.1849C7.56986 22.2801 8.67256 23.3674 8.73481 24.8864C8.77927 25.9891 8.77483 27.0984 8.73703 28.2011C8.6859 29.7821 7.58098 30.8959 5.99363 30.9668C5.03322 31.0089 4.07058 30.9845 3.10795 30.9756C1.10486 30.9535 0.0555219 29.8951 0.0332901 27.8823C0.0288438 27.4394 0.0332901 26.9988 0.0332901 26.5559L0.0355133 26.5537Z" fill="white"/>
<path d="M19.8621 26.6268C19.8621 27.1427 19.8798 27.6586 19.8576 28.1746C19.7931 29.7622 18.7149 30.8937 17.1364 30.9624C16.0293 31.0111 14.9155 31.0133 13.8083 30.9579C12.2721 30.8804 11.2072 29.7733 11.1583 28.2366C11.125 27.1316 11.125 26.0245 11.1583 24.9218C11.2072 23.3364 12.3032 22.2469 13.9106 22.1849C14.871 22.1473 15.8337 22.1672 16.7963 22.1783C18.7216 22.2004 19.8265 23.2921 19.8621 25.1897C19.8709 25.668 19.8621 26.1485 19.8621 26.6268Z" fill="white"/>
<path d="M22.2676 26.5116C22.2676 26.1064 22.2632 25.7012 22.2676 25.296C22.2876 23.2279 23.3369 22.1938 25.4312 22.1783C26.3182 22.1716 27.2075 22.1584 28.0946 22.1827C29.8108 22.2314 30.9313 23.3386 30.9758 25.0391C31.0025 26.071 31.0047 27.1029 30.9758 28.1325C30.9291 29.8264 29.802 30.9269 28.0768 30.969C27.1519 30.9934 26.2271 30.9845 25.3022 30.9712C23.3636 30.9446 22.2987 29.8796 22.2698 27.9465C22.2632 27.4682 22.2698 26.9877 22.2698 26.5094L22.2676 26.5116Z" fill="white"/>
</g>
<defs>
<clipPath id="clip0_25_365">
<rect width="31" height="31" fill="white"/>
</clipPath>
</defs>
</svg>
