<svg width="31" height="31" viewBox="0 0 31 31" fill="none" xmlns="http://www.w3.org/2000/svg">
<path d="M19.864 4.40864C19.864 8.24157 19.2726 8.83279 15.4421 8.83279C14.9241 8.83279 14.4061 8.85271 13.8881 8.82614C12.2896 8.742 11.2047 7.657 11.1602 6.06271C11.1291 4.95779 11.1247 3.85064 11.1625 2.74793C11.2136 1.22007 12.2941 0.124 13.8369 0.0487144C14.8707 1.47149e-07 15.9089 0.0177144 16.9427 0.0398573C18.7146 0.0797144 19.8195 1.19793 19.8618 2.97157C19.8729 3.44986 19.8618 3.93036 19.8618 4.40864H19.864Z" fill="#01276A"/>
<path d="M22.2675 4.40421C21.9829 0.741786 23.4057 -0.188214 26.616 0.0310006C27.1673 0.0686434 27.7276 0.00885771 28.2789 0.0442863C29.8063 0.141715 30.9067 1.23336 30.9668 2.75236C31.0112 3.85507 31.0068 4.96443 30.9668 6.06714C30.9134 7.64814 29.8063 8.75529 28.2167 8.82393C27.2563 8.86379 26.2936 8.84164 25.331 8.83057C23.3279 8.80843 22.2852 7.75 22.263 5.73057C22.2586 5.28771 22.263 4.84707 22.263 4.40421H22.2675Z" fill="#01276A"/>
<path d="M22.2673 15.4646C22.2673 15.1324 22.2673 14.8025 22.2673 14.4704C22.274 12.0878 23.25 11.1135 25.631 11.1091C26.4447 11.1091 27.2584 11.0914 28.0721 11.1135C29.7995 11.1578 30.9288 12.2539 30.9755 13.9478C31.0044 15.0151 31.0111 16.0846 30.9733 17.1519C30.9155 18.7284 29.8039 19.8311 28.2121 19.8976C27.2895 19.9352 26.3624 19.9109 25.4376 19.9042C23.3411 19.8909 22.2918 18.8569 22.2696 16.7909C22.2651 16.3481 22.2696 15.9074 22.2696 15.4646H22.2673Z" fill="#01276A"/>
<path d="M8.74387 4.51271C8.74387 5.02864 8.76388 5.54457 8.74164 6.0605C8.6705 7.6415 7.58114 8.7575 5.99379 8.82171C4.92222 8.866 3.84843 8.86379 2.77686 8.82171C1.17394 8.75971 0.0890333 7.65921 0.0445697 6.06714C0.0134452 4.96221 0.00899888 3.85507 0.0445697 2.75236C0.0957028 1.22229 1.17394 0.121786 2.71461 0.0487148C3.82175 -0.00221376 4.93556 -0.00442804 6.04271 0.0487148C7.57225 0.119572 8.65939 1.22893 8.73942 2.74571C8.77055 3.3325 8.74387 3.92371 8.74609 4.51271H8.74387Z" fill="#01276A"/>
<path d="M0.0356532 15.4535C0.0356532 15.0859 0.0356532 14.7161 0.0356532 14.3486C0.0467691 12.121 1.05832 11.1157 3.29706 11.1069C4.14853 11.1024 5.00001 11.0869 5.84926 11.1113C7.57 11.1578 8.69716 12.2583 8.74384 13.9544C8.77274 14.9863 8.77052 16.0181 8.74384 17.0478C8.69938 18.7461 7.57667 19.8533 5.85816 19.8998C4.93332 19.9241 4.00847 19.9131 3.08363 19.902C1.13835 19.8776 0.0667777 18.817 0.0378763 16.8906C0.0312068 16.4123 0.0378763 15.9318 0.0378763 15.4535H0.0356532Z" fill="#01276A"/>
<path d="M19.8596 15.5399C19.8596 16.0934 19.8841 16.647 19.8552 17.1984C19.7729 18.7151 18.6858 19.8245 17.1563 19.8931C16.0491 19.9441 14.9353 19.9441 13.8282 19.8931C12.2875 19.8201 11.2115 18.7196 11.1626 17.1873C11.127 16.0824 11.1292 14.9774 11.1626 13.8725C11.2093 12.2804 12.2942 11.1844 13.8971 11.1179C14.8575 11.0781 15.8201 11.1002 16.7828 11.1113C18.7592 11.1334 19.8441 12.2295 19.8663 14.2157C19.8708 14.6586 19.8663 15.0992 19.8663 15.5421H19.8619L19.8596 15.5399Z" fill="#01276A"/>
<path d="M0.0355133 26.5537C-0.235714 22.9378 1.07596 21.9458 4.48854 22.1716C5.00432 22.2071 5.52454 22.1517 6.04032 22.1849C7.56986 22.2801 8.67256 23.3674 8.73481 24.8864C8.77927 25.9891 8.77483 27.0984 8.73703 28.2011C8.6859 29.7821 7.58098 30.8959 5.99363 30.9668C5.03322 31.0089 4.07058 30.9845 3.10795 30.9756C1.10486 30.9535 0.0555219 29.8951 0.0332901 27.8823C0.0288438 27.4394 0.0332901 26.9988 0.0332901 26.5559L0.0355133 26.5537Z" fill="#01276A"/>
<path d="M19.8618 26.6268C19.8618 27.1427 19.8796 27.6586 19.8574 28.1746C19.7929 29.7622 18.7147 30.8937 17.1362 30.9624C16.0291 31.0111 14.9152 31.0133 13.8081 30.9579C12.2719 30.8804 11.207 29.7733 11.1581 28.2366C11.1247 27.1316 11.1247 26.0245 11.1581 24.9218C11.207 23.3364 12.303 22.2469 13.9104 22.1849C14.8708 22.1473 15.8334 22.1672 16.796 22.1783C18.7213 22.2004 19.8262 23.2921 19.8618 25.1897C19.8707 25.668 19.8618 26.1485 19.8618 26.6268Z" fill="#01276A"/>
<path d="M22.2674 26.5116C22.2674 26.1064 22.2629 25.7012 22.2674 25.296C22.2874 23.2279 23.3367 22.1938 25.4309 22.1783C26.318 22.1716 27.2073 22.1584 28.0943 22.1827C29.8106 22.2314 30.9311 23.3386 30.9755 25.0391C31.0022 26.071 31.0044 27.1029 30.9755 28.1325C30.9289 29.8264 29.8017 30.9269 28.0765 30.969C27.1517 30.9934 26.2268 30.9845 25.302 30.9712C23.3634 30.9446 22.2985 29.8796 22.2696 27.9465C22.2629 27.4682 22.2696 26.9877 22.2696 26.5094L22.2674 26.5116Z" fill="#01276A"/>
</svg>
