<svg width="38" height="33" viewBox="0 0 38 33" fill="none" xmlns="http://www.w3.org/2000/svg">
<path d="M4.12037 15.0004C3.25371 15.7551 2.56701 16.3506 1.88237 16.9502C1.37561 17.3948 0.827489 17.7297 0.289707 17.0557C-0.204638 16.4354 0.097347 15.9102 0.62065 15.4491C6.28183 10.4619 11.9451 5.47466 17.5939 0.470899C18.2454 -0.105981 18.7894 -0.190756 19.4761 0.417139C25.1518 5.44364 30.8419 10.4515 36.53 15.4636C37.0926 15.9598 37.3739 16.5098 36.7761 17.1404C36.2756 17.6677 35.775 17.4072 35.3241 17.0143C34.6146 16.394 33.9114 15.7654 32.9723 14.9322C32.9723 15.6331 32.9723 15.997 32.9723 16.3609C32.9723 20.0124 32.9785 23.666 32.9723 27.3175C32.9641 30.8904 30.8895 32.9478 27.2987 32.9519C21.4742 32.9561 15.6496 32.9561 9.82499 32.9519C6.23219 32.9498 4.19276 30.9049 4.18449 27.303C4.17828 23.6515 4.18449 19.998 4.18035 16.3465C4.18035 15.9826 4.14932 15.6186 4.12243 15.0004H4.12037ZM13.4902 30.9277C13.4902 30.417 13.4902 30.0468 13.4902 29.6747C13.4902 26.7799 13.484 23.8852 13.4922 20.9904C13.4964 19.2391 14.1934 18.5423 15.9226 18.5361C17.6807 18.5299 19.4389 18.5299 21.197 18.5361C22.9365 18.5423 23.6542 19.2474 23.6605 20.976C23.6708 23.9059 23.6625 26.8337 23.6625 29.7636C23.6625 30.1275 23.6625 30.4935 23.6625 30.9401C25.0835 30.9401 26.3535 30.9442 27.6235 30.9401C29.727 30.9297 31.0343 29.7367 31.0529 27.6483C31.0942 23.0664 31.0777 18.4824 31.0467 13.8983C31.0446 13.5406 30.8398 13.0837 30.573 12.8459C26.7982 9.46733 22.9882 6.12804 19.2113 2.75154C18.7232 2.31526 18.4212 2.30079 17.9269 2.74327C14.15 6.11977 10.3442 9.46319 6.56107 12.8335C6.33148 13.0382 6.10395 13.3938 6.10395 13.6812C6.0812 18.47 6.05431 23.2608 6.1205 28.0495C6.14118 29.6126 7.37394 30.8284 8.87973 30.9091C10.3545 30.9897 11.8375 30.9256 13.4881 30.9256L13.4902 30.9277ZM15.4758 20.5955V30.8904H21.6727V20.5955H15.4758Z" fill="#F59C1A"/>
</svg>
