<svg width="38" height="31" viewBox="0 0 38 31" fill="none" xmlns="http://www.w3.org/2000/svg">
<path d="M33.8882 13.0961V14.2296C33.8882 18.7049 33.8882 23.1823 33.8882 27.6576C33.8882 27.8768 33.8924 28.096 33.8882 28.3151C33.8546 29.3693 33.3146 30.0184 32.5013 29.9892C31.7111 29.9621 31.2152 29.3588 31.211 28.3318C31.2005 23.6687 31.2047 19.0034 31.2047 14.3402C31.2047 13.9708 31.2047 13.6013 31.2047 13.1692H22.5404C22.5404 13.5324 22.5404 13.8664 22.5404 14.2004C22.5404 18.5191 22.5404 22.84 22.5404 27.1587C22.5404 29.1543 21.6725 30.0101 19.6593 30.0122C15.3114 30.0122 10.9614 30.0142 6.61345 30.0122C4.64018 30.0122 3.78279 29.1689 3.78279 27.2193C3.77858 22.9318 3.78279 18.6423 3.78279 14.3548C3.78279 13.9854 3.78279 13.6138 3.78279 13.1024C3.20489 13.1024 2.71315 13.1233 2.22561 13.0982C0.435167 13.0085 -0.5273 11.4054 0.30908 9.82942C1.76329 7.08871 3.26163 4.37305 4.74105 1.64486C5.33156 0.544817 6.28142 0.010451 7.51077 0.00836366C15.0739 -0.00416054 22.6349 1.41966e-05 30.1981 0.00627629C31.3602 0.00627629 32.2785 0.511419 32.8417 1.52797C34.359 4.27076 35.8783 7.01148 37.3451 9.78141C38.1878 11.372 37.28 12.9229 35.4643 13.0899C34.9978 13.1316 34.5229 13.0961 33.8882 13.0961ZM3.10612 10.2678H34.5397C33.5436 8.4288 32.4572 6.76099 31.7153 4.95542C30.9672 3.13315 29.8471 2.67602 27.9222 2.71776C21.3384 2.85762 14.7503 2.76577 8.16432 2.78456C7.79657 2.78456 7.23128 2.86597 7.09468 3.09975C5.74765 5.42508 4.46996 7.79424 3.10822 10.2678H3.10612ZM6.53149 13.1421V18.7258H19.7854V13.1421H6.53149ZM19.7749 27.2067V21.6335H6.5399V27.2067H19.7749Z" fill="#01276A"/>
</svg>
