<svg width="29" height="29" viewBox="0 0 29 29" fill="none" xmlns="http://www.w3.org/2000/svg">
<g clip-path="url(#clip0_8_237)">
<path d="M10.8765 9.50834V10.125C10.8765 14.5074 10.8833 18.8909 10.8663 23.2732C10.8651 23.7085 10.9648 23.9284 11.3995 24.0951C13.4575 24.8852 15.4974 25.7206 17.544 26.5379C17.715 26.6059 17.8916 26.6637 18.1202 26.7465C18.1202 26.0425 18.1202 25.3862 18.1202 24.731C18.1202 22.2938 18.1236 19.8567 18.118 17.4206C18.118 16.9683 18.2357 16.5999 18.6795 16.405C19.319 16.125 19.9281 16.5863 19.9326 17.3764C19.9417 19.0382 19.936 20.7012 19.936 22.3641C19.936 23.7992 19.936 25.2343 19.936 26.7329C20.1216 26.6739 20.2745 26.6365 20.4182 26.5776C22.517 25.7387 24.6124 24.8863 26.7179 24.0645C27.0734 23.9262 27.1922 23.7607 27.19 23.3752C27.1718 20.2579 27.1798 17.1418 27.1809 14.0245C27.1809 13.8363 27.1628 13.6413 27.2001 13.46C27.2941 13.0009 27.5873 12.7186 28.0605 12.7061C28.562 12.6937 28.8699 12.9782 28.9763 13.4622C29.0125 13.6255 28.9955 13.8012 28.9955 13.9701C28.9955 17.3515 28.9967 20.7329 28.9955 24.1143C28.9955 24.9656 28.8676 25.1595 28.0843 25.4723C25.2859 26.5923 22.4819 27.7009 19.6903 28.8368C19.2149 29.0306 18.8074 29.0159 18.3387 28.8254C15.7215 27.7587 13.0986 26.7068 10.4644 25.6832C10.1712 25.5687 9.75577 25.5721 9.46258 25.6866C6.8114 26.717 4.17493 27.7859 1.5328 28.8413C0.536629 29.2403 0.00118507 28.8798 0.00118507 27.8086C-0.00107896 22.5761 5.30532e-05 17.3435 0.00118507 12.1099C0.00118507 11.3232 0.131367 11.1248 0.858122 10.8323C3.70741 9.68631 6.5533 8.53234 9.41503 7.42032C9.74445 7.29222 10.2074 7.30469 10.5425 7.43052C12.2179 8.05851 13.8729 8.74319 15.5325 9.41199C16.1936 9.67838 16.455 10.1499 16.2456 10.6691C16.0294 11.2053 15.5347 11.3685 14.8668 11.1033C13.5571 10.5852 12.2496 10.0581 10.8753 9.50721L10.8765 9.50834ZM1.83958 26.7419C2.05014 26.6649 2.2256 26.6059 2.39653 26.5379C4.44322 25.7195 6.48424 24.8874 8.53999 24.0928C8.93846 23.9386 9.07203 23.755 9.0709 23.3265C9.05392 18.9067 9.06071 14.487 9.06071 10.0661C9.06071 9.90283 9.06071 9.73959 9.06071 9.52421C8.87846 9.58656 8.75394 9.62397 8.63508 9.67158C6.50122 10.5263 4.37303 11.3923 2.23239 12.2289C1.8826 12.3649 1.80788 12.5497 1.80902 12.8943C1.82034 17.3526 1.81581 21.8098 1.81694 26.2681C1.81694 26.4132 1.83052 26.5572 1.83958 26.7431V26.7419Z" fill="white"/>
<path d="M22.6596 -2.53977e-06C26.0783 0.00339816 28.9366 2.79424 28.991 6.1802C29.0091 7.27068 28.6287 8.25802 28.1555 9.20681C26.9047 11.7097 25.184 13.8839 23.358 15.9787C22.9449 16.4526 22.3788 16.4718 21.9747 16.0071C20.0265 13.7683 18.2277 11.4309 16.9157 8.73639C14.9585 4.71563 18.1644 -0.0113382 22.6596 -2.53977e-06ZM22.5453 14.029C22.7037 13.9168 22.7581 13.8941 22.7898 13.8544C24.2659 12.0577 25.6198 10.1839 26.6862 8.10272C27.9144 5.7041 26.5209 3.34515 24.9202 2.42583C23.1984 1.43736 21.0261 1.67427 19.5692 3.03795C18.1032 4.4107 17.7591 6.30375 18.659 8.14466C18.9319 8.70351 19.2047 9.27029 19.5533 9.78153C20.5269 11.2087 21.54 12.6086 22.5441 14.0279L22.5453 14.029Z" fill="white"/>
<path d="M19.9371 6.34683C19.9371 4.85279 21.1903 3.61381 22.6823 3.62968C24.1516 3.64554 25.3697 4.87773 25.3686 6.3491C25.3686 7.842 24.1131 9.08439 22.6234 9.06625C21.1529 9.04925 19.9371 7.81706 19.9383 6.3457L19.9371 6.34683ZM23.5517 6.35477C23.5551 5.86507 23.1487 5.45131 22.6585 5.44791C22.1695 5.44451 21.7574 5.85033 21.7529 6.34116C21.7484 6.83086 22.1559 7.24461 22.6449 7.24801C23.1339 7.25255 23.5471 6.84447 23.5517 6.35477Z" fill="white"/>
</g>
<defs>
<clipPath id="clip0_8_237">
<rect width="29" height="29" fill="white"/>
</clipPath>
</defs>
</svg>
