<svg width="77" height="74" viewBox="0 0 77 74" fill="none" xmlns="http://www.w3.org/2000/svg">
<path d="M38.524 22.9517C27.7134 22.9517 16.9006 22.9603 6.08993 22.9324C5.32604 22.9324 5.13238 23.1574 5.20339 23.8557C5.25934 24.4105 5.22921 24.9761 5.20985 25.5373C5.16251 26.9083 4.11458 27.9902 2.78692 28.0609C1.46356 28.1315 0.138056 27.1504 0.122993 25.8094C0.0799571 21.887 -0.182562 17.9497 0.237038 14.0445C0.613603 10.542 3.7122 7.82353 7.2433 7.70142C9.73508 7.61574 12.2333 7.65001 14.7273 7.67358C15.3169 7.68 15.517 7.54719 15.4955 6.92809C15.446 5.51424 15.4675 4.09825 15.4847 2.68226C15.5019 1.12703 16.5369 0.0302215 17.9765 0.0087995C19.4677 -0.0126225 20.5543 1.06276 20.5866 2.65441C20.6167 4.09611 20.6124 5.53995 20.5866 6.98165C20.578 7.48292 20.6856 7.67786 21.2472 7.67572C25.9424 7.65215 30.6377 7.65215 35.3307 7.67572C35.8794 7.67786 35.9978 7.50648 35.9849 6.99878C35.9526 5.58493 35.9677 4.16894 35.9763 2.75295C35.9849 1.16987 37.0393 0.0280793 38.496 0.0109417C40.0023 -0.00833806 41.0976 1.12703 41.1105 2.74438C41.1212 4.16037 41.132 5.57637 41.1019 6.99022C41.0911 7.48506 41.1879 7.68 41.7496 7.67572C46.4448 7.65215 51.14 7.65001 55.8331 7.67572C56.4098 7.67786 56.4872 7.46364 56.4808 6.97736C56.4571 5.50782 56.442 4.03827 56.4808 2.57087C56.5174 1.20629 57.4598 0.16518 58.6993 0.0216527C59.9667 -0.124017 61.1265 0.615041 61.4966 1.81039C61.6666 2.35879 61.5891 2.92433 61.5935 3.4813C61.6042 4.65736 61.6279 5.83343 61.5827 7.00521C61.5633 7.55147 61.7484 7.67358 62.2627 7.66929C64.4898 7.64358 66.7169 7.65215 68.9418 7.66072C73.7662 7.67786 76.9939 10.9019 77.0003 15.7132C77.0068 19.7984 77.0089 23.8857 76.9982 27.9709C76.9939 29.2541 76.2558 30.2737 75.1562 30.5951C74.1019 30.9014 72.97 30.4965 72.3202 29.5797C72.0017 29.1277 71.864 28.6285 71.8661 28.0758C71.8748 26.6063 71.8317 25.1368 71.8855 23.6694C71.9092 23.0417 71.7005 22.9389 71.1216 22.9389C60.2572 22.956 49.3927 22.9517 38.5262 22.9517H38.524ZM38.5455 17.8404C44.2887 17.8404 50.0297 17.8319 55.7728 17.8533C56.328 17.8533 56.5066 17.7333 56.4851 17.1571C56.4377 15.9296 56.4313 14.6978 56.4851 13.4725C56.5131 12.8384 56.285 12.7334 55.7083 12.7356C50.5289 12.757 45.3517 12.7484 40.1723 12.7484C33.8933 12.7484 27.6144 12.757 21.3354 12.7334C20.7329 12.7313 20.55 12.8813 20.5758 13.4875C20.6253 14.6614 20.6318 15.8396 20.5758 17.0114C20.5436 17.6733 20.7222 17.8576 21.4021 17.8533C27.1173 17.8254 32.8325 17.8383 38.5477 17.8383L38.5455 17.8404ZM10.3699 17.8404C11.8718 17.8404 13.3738 17.8383 14.8736 17.8404C15.2071 17.8404 15.4998 17.879 15.489 17.3713C15.461 15.9832 15.4696 14.595 15.4847 13.2069C15.489 12.8555 15.3556 12.742 15.0156 12.7442C12.5496 12.7549 10.0815 12.7142 7.61556 12.7699C6.21474 12.802 5.24643 13.8859 5.2163 15.2762C5.20124 15.9424 5.24212 16.613 5.20339 17.277C5.17542 17.7376 5.33465 17.8554 5.78438 17.8469C7.31216 17.819 8.83993 17.8362 10.3699 17.8362V17.8404ZM66.7233 17.8404C67.6357 17.8404 68.5481 17.8469 69.4583 17.8404C70.2308 17.834 71.2765 18.1061 71.7069 17.7162C72.204 17.2642 71.8532 16.2081 71.8554 15.4176C71.8554 13.8345 70.844 12.7806 69.2689 12.7591C66.9084 12.727 64.5479 12.7656 62.1874 12.7377C61.6602 12.7313 61.5719 12.9284 61.5805 13.3932C61.6085 14.6743 61.6171 15.9574 61.5784 17.2385C61.5633 17.7526 61.7376 17.8619 62.2175 17.8533C63.7194 17.8254 65.2214 17.8426 66.7233 17.8426V17.8404Z" fill="#F59C1A"/>
<path d="M76.9483 51.0206C76.959 63.6767 66.6067 73.9914 53.8853 74C41.1681 74.0085 30.8158 63.7046 30.8115 51.0356C30.8072 38.3624 41.1402 28.0692 53.8702 28.067C66.6024 28.0627 76.9375 38.3431 76.9483 51.0228V51.0206ZM35.95 50.9949C35.9371 60.8683 43.959 68.8866 53.8638 68.9016C63.7384 68.9165 71.8356 60.8597 71.8334 51.0206C71.8334 41.2008 63.8158 33.2104 53.9326 33.1783C44.0128 33.144 35.9629 41.1194 35.95 50.9949Z" fill="#F59C1A"/>
<path d="M5.21389 49.052C5.21389 53.3771 5.21389 57.7043 5.21389 62.0294C5.21389 63.891 6.21663 64.8914 8.09515 64.8935C14.6667 64.8978 21.2383 64.8957 27.8121 64.8935C28.434 64.8935 29.0408 64.9193 29.5895 65.2684C30.476 65.8318 30.9688 66.8965 30.7751 67.8798C30.5621 68.968 29.7057 69.7863 28.5975 69.9427C28.3328 69.9791 28.0639 69.992 27.7949 69.992C21.2491 69.9941 14.7055 70.0027 8.15971 69.992C4.43709 69.9855 1.60102 68.0469 0.48854 64.7907C0.191591 63.9231 0.0732422 63.0298 0.0732422 62.1173C0.0732422 53.4114 0.0732422 44.7055 0.075394 35.9996C0.075394 34.3137 1.14914 33.1633 2.68338 33.1805C4.17242 33.1955 5.20959 34.3416 5.21174 35.9932C5.21604 40.3461 5.21174 44.6991 5.21174 49.052H5.21389Z" fill="#F59C1A"/>
<path d="M17.9331 33.1783C19.194 33.1783 20.455 33.1697 21.716 33.1804C23.2545 33.1954 24.3691 34.2472 24.3863 35.6782C24.4036 37.1199 23.3363 38.2317 21.7956 38.2724C19.9988 38.3196 18.1999 38.2853 16.4032 38.2853C15.678 38.2853 14.9528 38.3067 14.2298 38.2789C12.6569 38.2167 11.5573 37.1007 11.6003 35.6354C11.6412 34.1958 12.7429 33.189 14.3116 33.1761C15.5188 33.1654 16.7259 33.1761 17.9331 33.1761V33.1783Z" fill="#F59C1A"/>
<path d="M17.9695 53.572C16.7085 53.572 15.4476 53.5892 14.1866 53.5677C12.732 53.5442 11.6583 52.5223 11.6002 51.1471C11.5399 49.7396 12.5663 48.5293 14.0317 48.4929C16.6591 48.4286 19.2907 48.4308 21.9202 48.4886C23.3985 48.5207 24.4206 49.6947 24.3862 51.1149C24.3517 52.5095 23.25 53.5378 21.7545 53.5763C21.7007 53.5763 21.6469 53.5763 21.5931 53.5763C20.386 53.5763 19.1788 53.5763 17.9717 53.5763L17.9695 53.572Z" fill="#F59C1A"/>
<path d="M18.0104 45.9137C16.7753 45.9137 15.5423 45.9265 14.3072 45.9115C12.6976 45.8922 11.5916 44.8468 11.5938 43.373C11.5938 41.9335 12.6653 40.8581 14.2297 40.8367C16.7236 40.8024 19.2197 40.8024 21.7137 40.8345C23.3254 40.8559 24.4034 41.9377 24.3841 43.4159C24.3668 44.8811 23.2544 45.8965 21.6297 45.9137C20.4226 45.9265 19.2154 45.9158 18.0083 45.9158L18.0104 45.9137Z" fill="#F59C1A"/>
<path d="M56.4308 44.8255C56.4308 46.1601 56.4523 47.4947 56.42 48.8271C56.4093 49.2941 56.5642 49.5276 56.986 49.7333C59.0517 50.7315 61.1066 51.7555 63.153 52.7945C64.2483 53.3514 64.8056 54.4739 64.5969 55.575C64.386 56.6761 63.4995 57.4837 62.3267 57.638C61.7737 57.7108 61.268 57.5587 60.7817 57.3166C58.1522 56.0077 55.527 54.6946 52.8932 53.3943C51.8195 52.8651 51.3052 52.0061 51.3052 50.8322C51.3009 47.5504 51.2923 44.2685 51.3074 40.9867C51.316 39.3779 52.45 38.2082 53.9175 38.2382C55.385 38.2661 56.42 39.3907 56.4308 40.9845C56.4394 42.2656 56.4308 43.5466 56.4308 44.8276V44.8255Z" fill="#F59C1A"/>
</svg>
