<svg width="50" height="50" viewBox="0 0 50 50" fill="none" xmlns="http://www.w3.org/2000/svg">
<circle cx="25" cy="25" r="25" fill="#01276A"/>
<g clip-path="url(#clip0_2201_3)">
<path d="M32.5 22.75C32.5 24.9016 31.8016 26.8891 30.625 28.5016L36.5594 34.4406C37.1453 35.0266 37.1453 35.9781 36.5594 36.5641C35.9734 37.15 35.0219 37.15 34.4359 36.5641L28.5016 30.625C26.8891 31.8062 24.9016 32.5 22.75 32.5C17.3641 32.5 13 28.1359 13 22.75C13 17.3641 17.3641 13 22.75 13C28.1359 13 32.5 17.3641 32.5 22.75ZM22.75 29.5C23.6364 29.5 24.5142 29.3254 25.3331 28.9862C26.1521 28.647 26.8962 28.1498 27.523 27.523C28.1498 26.8962 28.647 26.1521 28.9862 25.3331C29.3254 24.5142 29.5 23.6364 29.5 22.75C29.5 21.8636 29.3254 20.9858 28.9862 20.1669C28.647 19.3479 28.1498 18.6038 27.523 17.977C26.8962 17.3502 26.1521 16.853 25.3331 16.5138C24.5142 16.1746 23.6364 16 22.75 16C21.8636 16 20.9858 16.1746 20.1669 16.5138C19.3479 16.853 18.6038 17.3502 17.977 17.977C17.3502 18.6038 16.853 19.3479 16.5138 20.1669C16.1746 20.9858 16 21.8636 16 22.75C16 23.6364 16.1746 24.5142 16.5138 25.3331C16.853 26.1521 17.3502 26.8962 17.977 27.523C18.6038 28.1498 19.3479 28.647 20.1669 28.9862C20.9858 29.3254 21.8636 29.5 22.75 29.5Z" fill="white"/>
</g>
<defs>
<clipPath id="clip0_2201_3">
<rect width="24" height="24" fill="white" transform="translate(13 13)"/>
</clipPath>
</defs>
</svg>
