<svg width="80" height="80" viewBox="0 0 80 80" fill="none" xmlns="http://www.w3.org/2000/svg">
<path d="M41.7347 1.75325C41.7043 2.3993 41.3391 2.85176 40.9043 3.28681C36.1959 7.98975 31.4939 12.6992 26.7899 17.4065C24.6965 19.5013 22.6031 21.5917 20.5098 23.6865C19.9728 24.2238 19.362 24.4979 18.599 24.2369C17.9164 24.0041 17.5273 23.5147 17.4251 22.8121C17.3251 22.129 17.6556 21.6222 18.1208 21.161C20.1228 19.1685 22.1162 17.1672 24.1139 15.1682C28.8941 10.3847 33.6764 5.60131 38.4523 0.811355C38.9283 0.33497 39.4131 -0.054404 40.1456 0.00867888C41.0434 0.0869887 41.763 0.861386 41.7369 1.75325H41.7347Z" fill="#F59C1A"/>
<path d="M79.9999 19.7124C80.0173 16.0731 77.387 13.6999 74.1893 13.8805C72.2677 13.9892 70.3287 13.9914 68.407 13.8805C65.1876 13.6934 62.5313 16.0905 62.5747 19.6928C62.6813 28.768 62.6095 37.8454 62.6095 46.9207C62.6095 56.133 62.6008 65.3452 62.6139 74.5575C62.6182 77.8095 64.779 79.9652 68.0179 79.9892C70.1896 80.0066 72.3633 80.0044 74.535 79.9892C77.7826 79.9674 79.9325 77.8226 79.9629 74.5771C79.976 73.0827 79.9651 71.5883 79.9651 70.0939C79.9651 53.3008 79.9216 36.5055 79.9999 19.7124ZM74.3154 76.5261C72.2786 76.5283 70.2417 76.5305 68.2049 76.5261C66.6963 76.524 66.0724 75.904 66.0724 74.4009C66.0724 65.2147 66.0724 56.0285 66.0724 46.8424C66.0724 37.6562 66.0724 28.7419 66.0724 19.6928C66.0724 17.9417 66.6528 17.3674 68.4201 17.3652C70.4026 17.3652 72.3851 17.3587 74.3676 17.3652C75.8566 17.3718 76.5001 18.0157 76.5001 19.4992C76.5001 37.7889 76.5001 56.0786 76.5001 74.3704C76.5001 75.9149 75.8784 76.524 74.3154 76.524V76.5261Z" fill="#F59C1A"/>
<path d="M38.2414 33.273C38.2392 30.0035 36.0393 27.8283 32.7656 27.8065C30.7309 27.7935 28.6919 27.8653 26.6594 27.7913C23.1618 27.663 20.8076 30.2646 20.8597 33.5558C20.9663 40.3448 20.8923 47.1382 20.8923 53.9294C20.8923 60.7206 20.8858 67.6205 20.8945 74.4661C20.8989 77.8204 23.0401 79.9717 26.3725 79.9891C28.5158 80 30.6614 80.0022 32.8069 79.9891C36.0915 79.9696 38.2436 77.8139 38.2457 74.5096C38.2544 60.7641 38.2566 47.0185 38.2457 33.2708L38.2414 33.273ZM32.7439 76.5261C30.6266 76.5326 28.5093 76.5326 26.392 76.5261C25.003 76.5218 24.3552 75.8735 24.3552 74.4726C24.3509 67.5988 24.3552 60.7271 24.3552 53.8532C24.3552 46.9794 24.3552 40.323 24.3552 33.5601C24.3552 31.8699 24.9073 31.3152 26.5964 31.3131C28.6593 31.3109 30.7222 31.3044 32.7852 31.3152C34.1503 31.3239 34.7807 31.9569 34.7807 33.3143C34.7851 47.0338 34.7829 60.7532 34.7807 74.4726C34.7807 75.8713 34.1308 76.5218 32.7439 76.5261Z" fill="#F59C1A"/>
<path d="M17.3817 47.173C17.3773 43.921 15.2144 41.774 11.969 41.7501C9.87776 41.7348 7.78222 41.8306 5.69755 41.7283C2.41947 41.5695 -0.0825699 44.132 3.43178e-05 47.4188C0.115245 51.8716 0.0282937 56.3309 0.0282937 60.7881C0.0282937 65.3801 0.0152509 69.9742 0.0326412 74.5662C0.0435102 77.8139 2.20209 79.9674 5.44756 79.9892C7.61919 80.0044 9.79298 80.0044 11.9646 79.9892C15.2079 79.9674 17.3752 77.8161 17.3795 74.5662C17.3947 65.4344 17.3947 56.3048 17.3795 47.173H17.3817ZM13.9232 74.3944C13.9232 75.8975 13.2993 76.5218 11.7994 76.5261C9.71038 76.5305 7.62136 76.5327 5.53234 76.5261C4.14329 76.5218 3.49767 75.8714 3.4955 74.4727C3.49332 65.404 3.49332 56.3331 3.4955 47.2644C3.4955 45.8657 4.14111 45.2218 5.53669 45.2174C7.65397 45.2109 9.76907 45.2109 11.8863 45.2174C13.2754 45.2218 13.921 45.87 13.9232 47.2709C13.9275 51.8325 13.9232 56.394 13.9232 60.9577C13.9232 65.4388 13.9232 69.9177 13.9232 74.3987V74.3944Z" fill="#F59C1A"/>
<path d="M59.1013 54.1403C59.0948 50.8753 56.8949 48.7022 53.6212 48.6826C51.5322 48.6695 49.441 48.6761 47.352 48.6826C43.9239 48.6913 41.761 50.847 41.7523 54.2709C41.7436 57.6121 41.7523 60.9511 41.7523 64.2923C41.7523 67.714 41.7392 71.1357 41.7566 74.5596C41.7718 77.8095 43.9217 79.9674 47.1563 79.9935C49.3279 80.0109 51.4996 80.0087 53.669 79.9935C56.9188 79.9717 59.0948 77.8312 59.1013 74.5944C59.1187 67.7771 59.1165 60.9598 59.1013 54.1425V54.1403ZM55.6428 74.366C55.6428 75.9148 55.0254 76.5261 53.4668 76.5282C51.4322 76.5304 49.3953 76.5304 47.3606 76.5282C45.8455 76.5261 45.2151 75.9105 45.2151 74.4204C45.2129 67.7119 45.2129 61.0055 45.2151 54.297C45.2151 52.82 45.8173 52.1978 47.2672 52.1913C49.3844 52.1826 51.4995 52.1804 53.6168 52.1913C55.0276 52.1978 55.6385 52.8221 55.6406 54.2448C55.645 57.6121 55.6406 60.9794 55.6406 64.3467C55.6406 67.714 55.6406 71.027 55.6406 74.3682L55.6428 74.366Z" fill="#F59C1A"/>
<path d="M36.5131 13.9022C33.6241 13.9066 31.3112 16.245 31.3243 19.1468C31.3373 22.0421 33.6763 24.3566 36.5675 24.337C39.3977 24.3174 41.7302 21.9703 41.7411 19.1316C41.752 16.2711 39.3782 13.8979 36.5109 13.9022H36.5131ZM36.5283 20.8631C35.5762 20.8696 34.7697 20.0495 34.7871 19.0881C34.8023 18.1592 35.5827 17.3805 36.5066 17.3718C37.4652 17.3631 38.25 18.1701 38.2348 19.1468C38.2217 20.0887 37.4587 20.8544 36.5283 20.8609V20.8631Z" fill="#F59C1A"/>
<path d="M22.6051 1.53784e-06C19.7204 0.00217681 17.3662 2.3667 17.3923 5.23153C17.4184 8.07026 19.7487 10.4043 22.5833 10.4304C25.4527 10.4565 27.807 8.10507 27.8113 5.21195C27.8157 2.30362 25.5136 -0.00217373 22.6051 1.53784e-06ZM22.5855 6.91954C21.5943 6.90649 20.8682 6.13427 20.9008 5.12929C20.9312 4.18958 21.7095 3.44781 22.6464 3.46521C23.5724 3.48261 24.3441 4.26354 24.3484 5.1902C24.355 6.1582 23.5637 6.9326 22.5833 6.91954H22.5855Z" fill="#F59C1A"/>
</svg>
