<svg width="130" height="65" viewBox="0 0 130 65" fill="none" xmlns="http://www.w3.org/2000/svg">
<path d="M35.1897 52.2157V51.0317H42.7417V52.2157H39.7017V62.1837H38.2457V52.2157H35.1897ZM48.2619 54.5037C46.8379 54.5037 45.6539 55.4477 45.4939 57.1597H51.0299C51.0459 55.4477 49.7659 54.5037 48.2619 54.5037ZM52.3579 59.4797C51.9099 61.0797 50.5019 62.3277 48.3259 62.3277C45.8299 62.3277 43.9899 60.5677 43.9899 57.7837C43.9899 55.0157 45.7659 53.2717 48.3259 53.2717C50.8699 53.2717 52.5339 55.0637 52.5339 57.4637C52.5339 57.7837 52.5179 58.0397 52.4859 58.3437H45.4779C45.5899 60.1197 46.8379 61.0957 48.3259 61.0957C49.6379 61.0957 50.4699 60.4237 50.7899 59.4797H52.3579ZM55.9118 57.4157V62.1837H54.4558V53.4157H55.9118V54.8397C56.4078 53.8637 57.3518 53.2557 58.7438 53.2557V54.7597H58.3598C56.9678 54.7597 55.9118 55.3837 55.9118 57.4157ZM61.8805 57.4157V62.1837H60.4245V53.4157H61.8805V54.8397C62.3765 53.8637 63.3205 53.2557 64.7125 53.2557V54.7597H64.3285C62.9365 54.7597 61.8805 55.3837 61.8805 57.4157ZM70.1213 54.5037C68.6973 54.5037 67.5133 55.4477 67.3533 57.1597H72.8893C72.9053 55.4477 71.6253 54.5037 70.1213 54.5037ZM74.2173 59.4797C73.7693 61.0797 72.3613 62.3277 70.1853 62.3277C67.6893 62.3277 65.8493 60.5677 65.8493 57.7837C65.8493 55.0157 67.6253 53.2717 70.1853 53.2717C72.7293 53.2717 74.3933 55.0637 74.3933 57.4637C74.3933 57.7837 74.3773 58.0397 74.3453 58.3437H67.3373C67.4493 60.1197 68.6973 61.0957 70.1853 61.0957C71.4973 61.0957 72.3293 60.4237 72.6493 59.4797H74.2173ZM82.7312 62.1837V57.2237C82.7312 55.4317 81.7552 54.5197 80.2832 54.5197C78.7952 54.5197 77.7712 55.4477 77.7712 57.3357V62.1837H76.3152V53.4157H77.7712V54.6637C78.3472 53.7517 79.4032 53.2557 80.5872 53.2557C82.6192 53.2557 84.1712 54.5037 84.1712 57.0157V62.1837H82.7312ZM94.8695 57.7837C94.8695 60.5677 92.8695 62.3277 90.3735 62.3277C87.8935 62.3277 86.0055 60.5677 86.0055 57.7837C86.0055 55.0157 87.9575 53.2717 90.4375 53.2717C92.9335 53.2717 94.8695 55.0157 94.8695 57.7837ZM87.4935 57.7837C87.4935 60.0077 88.8535 61.0477 90.3735 61.0477C91.8935 61.0477 93.3815 60.0077 93.3815 57.7837C93.3815 55.5757 91.9255 54.5357 90.4215 54.5357C88.8855 54.5357 87.4935 55.5757 87.4935 57.7837Z" fill="#00266A"/>
<g clip-path="url(#clip0_6_165)">
<path d="M46.1699 18.5651V14.8089C45.1839 14.8089 44.2508 14.8235 43.3178 14.8052C42.1291 14.7815 41.8077 14.2094 42.3701 13.1456C42.7408 12.4455 43.1279 11.7564 43.5059 11.0618C43.8692 10.3947 44.2308 9.72571 44.554 9.12801C44.2125 8.77158 43.7451 8.49193 43.6465 8.11539C43.5606 7.79187 43.8382 7.32029 44.0536 6.97483C45.3263 4.93498 46.6264 2.91158 47.921 0.886345C48.666 -0.279807 49.2831 -0.296258 50.0117 0.838822C51.341 2.91523 52.6666 4.99347 53.9867 7.07719C54.6258 8.08615 54.5017 8.48644 53.344 8.99641C54.0671 10.3271 54.7902 11.6522 55.5078 12.9811C56.1943 14.2496 55.8784 14.7979 54.4542 14.8089C53.5796 14.8162 52.7049 14.8089 51.7993 14.8089V18.5102H62.271V14.8071C61.3088 14.8071 60.3721 14.8217 59.4372 14.8034C58.2467 14.7796 57.9216 14.213 58.4895 13.1474C59.2199 11.7802 59.9667 10.4221 60.708 9.05855C59.5175 8.38591 59.4445 8.0898 60.1767 6.94193C61.484 4.88745 62.7896 2.83298 64.1061 0.783987C64.7744 -0.257873 65.4281 -0.256045 66.0982 0.783987C67.4457 2.88416 68.7878 4.98981 70.1226 7.0973C70.7562 8.09712 70.621 8.49193 69.4597 8.99275C70.2011 10.3527 70.9442 11.7052 71.6764 13.0651C72.3009 14.2258 71.9741 14.7851 70.6667 14.8016C69.761 14.8125 68.8572 14.8034 67.9077 14.8034V18.4993H78.3703V14.8034C77.4592 14.8034 76.5535 14.8125 75.6497 14.8016C74.3551 14.7851 74.0228 14.2039 74.6472 13.0487C75.3685 11.7126 76.1043 10.3819 76.8329 9.04941C75.6625 8.40967 75.5712 8.07335 76.2595 6.98945C77.5833 4.90939 78.9071 2.82932 80.2401 0.754742C80.881 -0.243251 81.5475 -0.256045 82.1792 0.727325C83.5469 2.85126 84.9035 4.9825 86.2547 7.1174C86.8847 8.11357 86.7404 8.50107 85.5682 8.9763C86.3241 10.3673 87.0873 11.7491 87.8305 13.1419C88.3965 14.1984 88.0642 14.7705 86.8737 14.7979C86.0228 14.818 85.1701 14.8089 84.3174 14.818C84.259 14.818 84.2024 14.8509 84.0581 14.8948V18.5578C85.1226 18.5578 86.1762 18.5486 87.2316 18.5596C88.1902 18.5706 88.4769 18.852 88.4787 19.819C88.4842 27.0096 88.4769 34.2021 88.4878 41.3928C88.4878 42.2464 88.1062 42.6302 87.2827 42.6284C87.0691 42.6284 86.8573 42.6302 86.6436 42.6302C72.279 42.6302 57.9162 42.6302 43.5515 42.6302C41.8388 42.6302 41.7219 42.5151 41.7219 40.8371C41.7219 33.9206 41.7219 27.0041 41.7219 20.0858C41.7219 18.746 41.9118 18.5596 43.2502 18.5559C44.1924 18.5541 45.1328 18.5559 46.1736 18.5559L46.1699 18.5651ZM43.5917 40.7293H86.5688V20.4496H43.5917V40.7293ZM46.1717 7.04977C46.7341 7.04977 47.1157 7.05708 47.4974 7.04977C48.1547 7.03698 48.6787 7.23073 48.6641 7.9911C48.6514 8.69116 48.1565 8.87394 47.5357 8.89222C47.2527 8.90136 46.8145 8.91415 46.714 9.08414C45.9818 10.3161 45.319 11.5883 44.5905 12.9281H53.218C53.229 12.8257 53.2619 12.7526 53.2399 12.7105C52.5552 11.4238 51.8632 10.1406 51.173 8.85566C50.6161 7.82111 50.6873 7.54328 51.697 6.88527C50.8096 5.49612 49.9222 4.1088 48.98 2.63375C48.0123 4.1545 47.1395 5.52719 46.1717 7.04794V7.04977ZM60.7007 12.9116H69.4871C68.7403 11.5389 68.0355 10.2722 67.3636 8.98909C67.1718 8.62353 66.918 8.17937 66.9838 7.82477C67.0513 7.46469 67.4786 7.17406 67.7726 6.82312C66.9199 5.49247 66.0434 4.12708 65.0903 2.64106C64.117 4.16912 63.2369 5.55278 62.2856 7.04794C62.8462 7.04794 63.2096 7.05708 63.5729 7.04612C64.2193 7.02784 64.7671 7.18869 64.7744 7.95272C64.7799 8.71127 64.243 8.85749 63.5948 8.90136C63.2844 8.92147 62.8498 9.06038 62.7093 9.29069C62.019 10.4258 61.411 11.612 60.7007 12.9098V12.9116ZM76.8256 12.9006H85.601C84.8323 11.495 84.1202 10.1955 83.4136 8.89405C82.8238 7.81015 82.8767 7.59446 83.923 6.89075C83.0447 5.51074 82.1646 4.13074 81.2096 2.63375C80.2638 4.11977 79.3691 5.52354 78.3977 7.04794C78.9765 7.04794 79.3399 7.06074 79.7033 7.04429C80.3679 7.01504 80.9047 7.23804 80.9047 7.96186C80.9047 8.6875 80.3642 8.87943 79.7033 8.89587C79.4129 8.90319 78.9838 9.00189 78.8615 9.20478C78.164 10.3709 77.5395 11.581 76.8256 12.897V12.9006ZM49.8656 18.5157V14.882H48.1109V18.5157H49.8656ZM65.9722 14.8692H64.2376V18.4956H65.9722V14.8692ZM82.0879 14.8875H80.3168V18.5121H82.0879V14.8875Z" fill="#01276A"/>
</g>
<defs>
<clipPath id="clip0_6_165">
<rect width="46.7659" height="42.6395" fill="white" transform="translate(41.7161)"/>
</clipPath>
</defs>
</svg>
