<svg width="48" height="43" viewBox="0 0 48 43" fill="none" xmlns="http://www.w3.org/2000/svg">
<path d="M5.16991 18.5651V14.8089C4.1839 14.8089 3.25085 14.8235 2.31779 14.8052C1.12911 14.7815 0.807743 14.2094 1.37013 13.1456C1.7408 12.4455 2.1279 11.7564 2.50586 11.0618C2.86923 10.3947 3.23076 9.72571 3.55395 9.12801C3.2125 8.77158 2.74506 8.49193 2.64646 8.11539C2.56064 7.79187 2.83819 7.32029 3.05365 6.97483C4.32632 4.93498 5.62639 2.91158 6.92098 0.886345C7.66596 -0.279807 8.28313 -0.296258 9.01168 0.838822C10.341 2.91523 11.6666 4.99347 12.9867 7.07719C13.6258 8.08615 13.5017 8.48644 12.344 8.99641C13.0671 10.3271 13.7902 11.6522 14.5078 12.9811C15.1943 14.2496 14.8784 14.7979 13.4542 14.8089C12.5796 14.8162 11.7049 14.8089 10.7993 14.8089V18.5102H21.271V14.8071C20.3088 14.8071 19.3721 14.8217 18.4372 14.8034C17.2467 14.7796 16.9216 14.213 17.4895 13.1474C18.2199 11.7802 18.9667 10.4221 19.708 9.05855C18.5175 8.38591 18.4445 8.0898 19.1767 6.94193C20.484 4.88745 21.7896 2.83298 23.1061 0.783987C23.7744 -0.257873 24.4281 -0.256045 25.0982 0.783987C26.4457 2.88416 27.7878 4.98981 29.1226 7.0973C29.7562 8.09712 29.621 8.49193 28.4597 8.99275C29.2011 10.3527 29.9442 11.7052 30.6764 13.0651C31.3009 14.2258 30.9741 14.7851 29.6667 14.8016C28.761 14.8125 27.8572 14.8034 26.9077 14.8034V18.4993H37.3703V14.8034C36.4592 14.8034 35.5535 14.8125 34.6497 14.8016C33.3551 14.7851 33.0228 14.2039 33.6472 13.0487C34.3685 11.7126 35.1043 10.3819 35.8329 9.04941C34.6625 8.40967 34.5712 8.07335 35.2595 6.98945C36.5833 4.90939 37.9071 2.82932 39.2401 0.754742C39.881 -0.243251 40.5475 -0.256045 41.1792 0.727325C42.5469 2.85126 43.9035 4.9825 45.2547 7.1174C45.8847 8.11357 45.7404 8.50107 44.5682 8.9763C45.3241 10.3673 46.0873 11.7491 46.8305 13.1419C47.3965 14.1984 47.0642 14.7705 45.8737 14.7979C45.0228 14.818 44.1701 14.8089 43.3174 14.818C43.259 14.818 43.2024 14.8509 43.0581 14.8948V18.5578C44.1226 18.5578 45.1762 18.5486 46.2316 18.5596C47.1902 18.5706 47.4769 18.852 47.4787 19.819C47.4842 27.0096 47.4769 34.2021 47.4878 41.3928C47.4878 42.2464 47.1062 42.6302 46.2827 42.6284C46.0691 42.6284 45.8573 42.6302 45.6436 42.6302C31.279 42.6302 16.9162 42.6302 2.55151 42.6302C0.838784 42.6302 0.721924 42.5151 0.721924 40.8371C0.721924 33.9206 0.721924 27.0041 0.721924 20.0858C0.721924 18.746 0.911821 18.5596 2.25023 18.5559C3.19242 18.5541 4.13278 18.5559 5.17356 18.5559L5.16991 18.5651ZM2.59168 40.7293H45.5688V20.4496H2.59168V40.7293ZM5.17173 7.04977C5.73412 7.04977 6.11574 7.05708 6.49736 7.04977C7.1547 7.03698 7.67875 7.23073 7.66414 7.9911C7.65136 8.69116 7.15653 8.87394 6.53571 8.89222C6.25269 8.90136 5.81446 8.91415 5.71404 9.08414C4.98184 10.3161 4.31902 11.5883 3.59047 12.9281H12.218C12.229 12.8257 12.2618 12.7526 12.2399 12.7105C11.5552 11.4238 10.8632 10.1406 10.173 8.85566C9.61607 7.82111 9.68728 7.54328 10.697 6.88527C9.80962 5.49612 8.92221 4.1088 7.98003 2.63375C7.01228 4.1545 6.13948 5.52719 5.17173 7.04794V7.04977ZM19.7007 12.9116H28.4871C27.7403 11.5389 27.0355 10.2722 26.3636 8.98909C26.1718 8.62353 25.918 8.17937 25.9838 7.82477C26.0513 7.46469 26.4786 7.17406 26.7726 6.82312C25.9199 5.49247 25.0434 4.12708 24.0903 2.64106C23.117 4.16912 22.2369 5.55278 21.2856 7.04794C21.8462 7.04794 22.2096 7.05708 22.5729 7.04612C23.2193 7.02784 23.7671 7.18869 23.7744 7.95272C23.7799 8.71127 23.243 8.85749 22.5948 8.90136C22.2844 8.92147 21.8498 9.06038 21.7093 9.29069C21.019 10.4258 20.411 11.612 19.7007 12.9098V12.9116ZM35.8256 12.9006H44.601C43.8323 11.495 43.1202 10.1955 42.4136 8.89405C41.8238 7.81015 41.8767 7.59446 42.923 6.89075C42.0447 5.51074 41.1646 4.13074 40.2096 2.63375C39.2638 4.11977 38.3691 5.52354 37.3977 7.04794C37.9765 7.04794 38.3399 7.06074 38.7033 7.04429C39.3679 7.01504 39.9047 7.23804 39.9047 7.96186C39.9047 8.6875 39.3642 8.87942 38.7033 8.89587C38.4129 8.90319 37.9838 9.00189 37.8615 9.20478C37.164 10.3709 36.5395 11.581 35.8256 12.897V12.9006ZM8.86561 18.5157V14.882H7.11088V18.5157H8.86561ZM24.9722 14.8692H23.2376V18.4956H24.9722V14.8692ZM41.0879 14.8875H39.3168V18.5121H41.0879V14.8875Z" fill="#F59C1A"/>
</svg>
